<mxfile host="app.diagrams.net" modified="2022-04-12T08:25:33.132Z" agent="5.0 (Windows NT 10.0; Win64; x64) AppleWebKit/537.36 (KHTML, like Gecko) Chrome/100.0.4896.75 Safari/537.36" etag="tA6yDKa7CiZ13U5cfg4G" version="17.4.3" type="gitlab">
  <diagram name="Page-1" id="74e2e168-ea6b-b213-b513-2b3c1d86103e">
    <mxGraphModel dx="1564" dy="936" grid="1" gridSize="10" guides="1" tooltips="1" connect="1" arrows="1" fold="1" page="1" pageScale="1" pageWidth="1400" pageHeight="850" background="none" math="0" shadow="0">
      <root>
        <mxCell id="0" />
        <mxCell id="1" parent="0" />
        <mxCell id="4FPXhwdcyS67ErbTkfEf-1" value="&lt;font style=&quot;font-size: 18px&quot;&gt;Api Consumer&lt;/font&gt;" style="rounded=1;whiteSpace=wrap;html=1;" vertex="1" parent="1">
          <mxGeometry x="70" y="50" width="130" height="50" as="geometry" />
        </mxCell>
        <mxCell id="4FPXhwdcyS67ErbTkfEf-3" value="&lt;div&gt;&lt;span&gt;&lt;font style=&quot;font-size: 14px&quot;&gt;WSD_ACCOUNT_SERVICE&lt;/font&gt;&lt;/span&gt;&lt;/div&gt;" style="rounded=1;whiteSpace=wrap;html=1;align=center;" vertex="1" parent="1">
          <mxGeometry x="350" y="50" width="230" height="50" as="geometry" />
        </mxCell>
        <mxCell id="4FPXhwdcyS67ErbTkfEf-4" value="&lt;font style=&quot;font-size: 16px&quot;&gt;ESB&lt;/font&gt;" style="rounded=1;whiteSpace=wrap;html=1;" vertex="1" parent="1">
          <mxGeometry x="939" y="50" width="110" height="50" as="geometry" />
        </mxCell>
        <mxCell id="4FPXhwdcyS67ErbTkfEf-5" value="&lt;font style=&quot;font-size: 14px&quot;&gt;WSD_CUSTOMER_CONTACT&lt;/font&gt;" style="rounded=1;whiteSpace=wrap;html=1;" vertex="1" parent="1">
          <mxGeometry x="680" y="50" width="220" height="50" as="geometry" />
        </mxCell>
        <mxCell id="4FPXhwdcyS67ErbTkfEf-11" value="" style="endArrow=none;dashed=1;html=1;dashPattern=1 3;strokeWidth=2;rounded=0;fontSize=16;entryX=0.5;entryY=1;entryDx=0;entryDy=0;" edge="1" parent="1" target="4FPXhwdcyS67ErbTkfEf-1">
          <mxGeometry width="50" height="50" relative="1" as="geometry">
            <mxPoint x="140" y="960" as="sourcePoint" />
            <mxPoint x="660" y="260" as="targetPoint" />
          </mxGeometry>
        </mxCell>
        <mxCell id="4FPXhwdcyS67ErbTkfEf-12" value="" style="endArrow=none;dashed=1;html=1;dashPattern=1 3;strokeWidth=2;rounded=0;fontSize=16;entryX=0.5;entryY=1;entryDx=0;entryDy=0;startArrow=none;" edge="1" parent="1" source="4FPXhwdcyS67ErbTkfEf-40">
          <mxGeometry width="50" height="50" relative="1" as="geometry">
            <mxPoint x="450" y="840" as="sourcePoint" />
            <mxPoint x="450" y="100" as="targetPoint" />
          </mxGeometry>
        </mxCell>
        <mxCell id="4FPXhwdcyS67ErbTkfEf-13" value="" style="endArrow=none;dashed=1;html=1;dashPattern=1 3;strokeWidth=2;rounded=0;fontSize=16;entryX=0.5;entryY=1;entryDx=0;entryDy=0;" edge="1" parent="1">
          <mxGeometry width="50" height="50" relative="1" as="geometry">
            <mxPoint x="780" y="970" as="sourcePoint" />
            <mxPoint x="780.0000000000001" y="100" as="targetPoint" />
          </mxGeometry>
        </mxCell>
        <mxCell id="4FPXhwdcyS67ErbTkfEf-14" value="" style="endArrow=none;dashed=1;html=1;dashPattern=1 3;strokeWidth=2;rounded=0;fontSize=16;entryX=0.5;entryY=1;entryDx=0;entryDy=0;startArrow=none;" edge="1" parent="1" source="4FPXhwdcyS67ErbTkfEf-38">
          <mxGeometry width="50" height="50" relative="1" as="geometry">
            <mxPoint x="1002" y="840" as="sourcePoint" />
            <mxPoint x="1002" y="100" as="targetPoint" />
          </mxGeometry>
        </mxCell>
        <mxCell id="4FPXhwdcyS67ErbTkfEf-15" value="" style="endArrow=classic;html=1;rounded=0;fontSize=16;" edge="1" parent="1">
          <mxGeometry width="50" height="50" relative="1" as="geometry">
            <mxPoint x="140" y="210" as="sourcePoint" />
            <mxPoint x="450" y="210" as="targetPoint" />
          </mxGeometry>
        </mxCell>
        <mxCell id="4FPXhwdcyS67ErbTkfEf-16" value="&lt;font style=&quot;font-size: 18px&quot;&gt;(url)/accounts/billsPayment&lt;/font&gt;" style="text;html=1;align=center;verticalAlign=middle;resizable=0;points=[];autosize=1;strokeColor=none;fillColor=none;fontSize=16;" vertex="1" parent="1">
          <mxGeometry x="140" y="178" width="230" height="30" as="geometry" />
        </mxCell>
        <mxCell id="4FPXhwdcyS67ErbTkfEf-17" value="" style="endArrow=classic;html=1;rounded=0;fontSize=16;" edge="1" parent="1">
          <mxGeometry width="50" height="50" relative="1" as="geometry">
            <mxPoint x="450" y="238" as="sourcePoint" />
            <mxPoint x="450" y="328" as="targetPoint" />
            <Array as="points">
              <mxPoint x="510" y="238" />
              <mxPoint x="510" y="328" />
            </Array>
          </mxGeometry>
        </mxCell>
        <mxCell id="4FPXhwdcyS67ErbTkfEf-18" value="&lt;span style=&quot;font-size: 18px&quot;&gt;AES/decrypte&lt;/span&gt;" style="text;html=1;align=center;verticalAlign=middle;resizable=0;points=[];autosize=1;strokeColor=none;fillColor=none;fontSize=16;" vertex="1" parent="1">
          <mxGeometry x="510" y="260" width="130" height="30" as="geometry" />
        </mxCell>
        <mxCell id="4FPXhwdcyS67ErbTkfEf-19" value="" style="endArrow=classic;html=1;rounded=0;fontSize=18;" edge="1" parent="1">
          <mxGeometry width="50" height="50" relative="1" as="geometry">
            <mxPoint x="450" y="500" as="sourcePoint" />
            <mxPoint x="770" y="500" as="targetPoint" />
          </mxGeometry>
        </mxCell>
        <mxCell id="4FPXhwdcyS67ErbTkfEf-20" value="&lt;font style=&quot;font-size: 14px&quot;&gt;WSD_MBLINK_SERVICE&lt;/font&gt;" style="rounded=1;whiteSpace=wrap;html=1;" vertex="1" parent="1">
          <mxGeometry x="1100" y="50" width="180" height="50" as="geometry" />
        </mxCell>
        <mxCell id="4FPXhwdcyS67ErbTkfEf-22" value="&lt;font style=&quot;font-size: 13px&quot;&gt;/directlink/customer/getCustomerInfo/{accountNo}/{currencyCode}&lt;/font&gt;" style="text;html=1;align=center;verticalAlign=middle;resizable=0;points=[];autosize=1;strokeColor=none;fillColor=none;fontSize=14;" vertex="1" parent="1">
          <mxGeometry x="440" y="470" width="390" height="20" as="geometry" />
        </mxCell>
        <mxCell id="4FPXhwdcyS67ErbTkfEf-24" value="" style="endArrow=classic;html=1;rounded=0;fontSize=12;" edge="1" parent="1">
          <mxGeometry width="50" height="50" relative="1" as="geometry">
            <mxPoint x="770" y="590" as="sourcePoint" />
            <mxPoint x="450" y="590" as="targetPoint" />
          </mxGeometry>
        </mxCell>
        <mxCell id="4FPXhwdcyS67ErbTkfEf-25" value="&lt;font style=&quot;font-size: 14px&quot;&gt;Response : DOB, Mobile Number&amp;nbsp;&lt;/font&gt;" style="text;html=1;align=center;verticalAlign=middle;resizable=0;points=[];autosize=1;strokeColor=none;fillColor=none;fontSize=12;" vertex="1" parent="1">
          <mxGeometry x="460" y="560" width="230" height="20" as="geometry" />
        </mxCell>
        <mxCell id="4FPXhwdcyS67ErbTkfEf-26" value="" style="rounded=0;whiteSpace=wrap;html=1;fontSize=13;" vertex="1" parent="1">
          <mxGeometry x="445" y="505" width="10" height="80" as="geometry" />
        </mxCell>
        <mxCell id="4FPXhwdcyS67ErbTkfEf-30" value="" style="rounded=0;whiteSpace=wrap;html=1;fontSize=13;" vertex="1" parent="1">
          <mxGeometry x="776" y="506" width="10" height="80" as="geometry" />
        </mxCell>
        <mxCell id="4FPXhwdcyS67ErbTkfEf-31" value="" style="endArrow=classic;html=1;rounded=0;fontSize=18;" edge="1" parent="1">
          <mxGeometry width="50" height="50" relative="1" as="geometry">
            <mxPoint x="445" y="370" as="sourcePoint" />
            <mxPoint x="1000" y="370" as="targetPoint" />
          </mxGeometry>
        </mxCell>
        <mxCell id="4FPXhwdcyS67ErbTkfEf-33" value="" style="endArrow=classic;html=1;rounded=0;fontSize=13;" edge="1" parent="1">
          <mxGeometry width="50" height="50" relative="1" as="geometry">
            <mxPoint x="990" y="440" as="sourcePoint" />
            <mxPoint x="445" y="440" as="targetPoint" />
          </mxGeometry>
        </mxCell>
        <mxCell id="4FPXhwdcyS67ErbTkfEf-34" value="" style="endArrow=none;dashed=1;html=1;dashPattern=1 3;strokeWidth=2;rounded=0;fontSize=16;entryX=0.5;entryY=1;entryDx=0;entryDy=0;" edge="1" parent="1">
          <mxGeometry width="50" height="50" relative="1" as="geometry">
            <mxPoint x="1189" y="960" as="sourcePoint" />
            <mxPoint x="1189.17" y="100" as="targetPoint" />
          </mxGeometry>
        </mxCell>
        <mxCell id="4FPXhwdcyS67ErbTkfEf-35" value="&lt;font style=&quot;font-size: 13px&quot;&gt;CASAInformationInquiryBalanceAndDetailsService : Account number&amp;nbsp;&lt;/font&gt;" style="text;html=1;align=center;verticalAlign=middle;resizable=0;points=[];autosize=1;strokeColor=none;fillColor=none;fontSize=14;" vertex="1" parent="1">
          <mxGeometry x="445" y="343" width="420" height="20" as="geometry" />
        </mxCell>
        <mxCell id="4FPXhwdcyS67ErbTkfEf-36" value="&lt;span style=&quot;font-size: 13px&quot;&gt;Response Balance Amount&amp;nbsp;&lt;/span&gt;" style="text;html=1;align=center;verticalAlign=middle;resizable=0;points=[];autosize=1;strokeColor=none;fillColor=none;fontSize=14;" vertex="1" parent="1">
          <mxGeometry x="560" y="415" width="180" height="20" as="geometry" />
        </mxCell>
        <mxCell id="4FPXhwdcyS67ErbTkfEf-38" value="" style="rounded=0;whiteSpace=wrap;html=1;fontSize=13;" vertex="1" parent="1">
          <mxGeometry x="997" y="375" width="10" height="60" as="geometry" />
        </mxCell>
        <mxCell id="4FPXhwdcyS67ErbTkfEf-39" value="" style="endArrow=none;dashed=1;html=1;dashPattern=1 3;strokeWidth=2;rounded=0;fontSize=16;entryX=0.5;entryY=1;entryDx=0;entryDy=0;" edge="1" parent="1" target="4FPXhwdcyS67ErbTkfEf-38">
          <mxGeometry width="50" height="50" relative="1" as="geometry">
            <mxPoint x="1002" y="970" as="sourcePoint" />
            <mxPoint x="1002" y="100" as="targetPoint" />
          </mxGeometry>
        </mxCell>
        <mxCell id="4FPXhwdcyS67ErbTkfEf-40" value="" style="rounded=0;whiteSpace=wrap;html=1;fontSize=13;" vertex="1" parent="1">
          <mxGeometry x="442" y="374" width="10" height="60" as="geometry" />
        </mxCell>
        <mxCell id="4FPXhwdcyS67ErbTkfEf-41" value="" style="endArrow=none;dashed=1;html=1;dashPattern=1 3;strokeWidth=2;rounded=0;fontSize=16;entryX=0.5;entryY=1;entryDx=0;entryDy=0;startArrow=none;" edge="1" parent="1" source="4FPXhwdcyS67ErbTkfEf-62" target="4FPXhwdcyS67ErbTkfEf-40">
          <mxGeometry width="50" height="50" relative="1" as="geometry">
            <mxPoint x="450" y="1160" as="sourcePoint" />
            <mxPoint x="450" y="100" as="targetPoint" />
          </mxGeometry>
        </mxCell>
        <mxCell id="4FPXhwdcyS67ErbTkfEf-45" value="" style="endArrow=classic;html=1;rounded=0;fontSize=18;" edge="1" parent="1">
          <mxGeometry width="50" height="50" relative="1" as="geometry">
            <mxPoint x="445" y="640" as="sourcePoint" />
            <mxPoint x="1180" y="640" as="targetPoint" />
          </mxGeometry>
        </mxCell>
        <mxCell id="4FPXhwdcyS67ErbTkfEf-47" value="" style="endArrow=classic;html=1;rounded=0;fontSize=12;" edge="1" parent="1">
          <mxGeometry width="50" height="50" relative="1" as="geometry">
            <mxPoint x="1180" y="722" as="sourcePoint" />
            <mxPoint x="452" y="722" as="targetPoint" />
          </mxGeometry>
        </mxCell>
        <mxCell id="4FPXhwdcyS67ErbTkfEf-48" value="" style="rounded=0;whiteSpace=wrap;html=1;fontSize=13;" vertex="1" parent="1">
          <mxGeometry x="1184" y="646" width="10" height="70" as="geometry" />
        </mxCell>
        <mxCell id="4FPXhwdcyS67ErbTkfEf-51" value="" style="rounded=0;whiteSpace=wrap;html=1;fontSize=13;" vertex="1" parent="1">
          <mxGeometry x="440" y="646" width="10" height="70" as="geometry" />
        </mxCell>
        <mxCell id="4FPXhwdcyS67ErbTkfEf-52" value="/directlink/simpleValidateOrSendOTP" style="text;html=1;align=center;verticalAlign=middle;resizable=0;points=[];autosize=1;strokeColor=none;fillColor=none;fontSize=13;" vertex="1" parent="1">
          <mxGeometry x="635" y="620" width="230" height="20" as="geometry" />
        </mxCell>
        <mxCell id="4FPXhwdcyS67ErbTkfEf-53" value="OTP" style="text;html=1;align=center;verticalAlign=middle;resizable=0;points=[];autosize=1;strokeColor=none;fillColor=none;fontSize=13;" vertex="1" parent="1">
          <mxGeometry x="710" y="700" width="40" height="20" as="geometry" />
        </mxCell>
        <mxCell id="4FPXhwdcyS67ErbTkfEf-55" value="&lt;span style=&quot;font-size: 14px&quot;&gt;WSD_BILL_PAYMENT_SERVICE&lt;/span&gt;" style="rounded=1;whiteSpace=wrap;html=1;" vertex="1" parent="1">
          <mxGeometry x="1320" y="50" width="230" height="50" as="geometry" />
        </mxCell>
        <mxCell id="4FPXhwdcyS67ErbTkfEf-56" value="" style="endArrow=classic;html=1;rounded=0;fontSize=18;" edge="1" parent="1">
          <mxGeometry width="50" height="50" relative="1" as="geometry">
            <mxPoint x="445" y="790" as="sourcePoint" />
            <mxPoint x="1430" y="790" as="targetPoint" />
          </mxGeometry>
        </mxCell>
        <mxCell id="4FPXhwdcyS67ErbTkfEf-57" value="" style="endArrow=classic;html=1;rounded=0;fontSize=12;" edge="1" parent="1">
          <mxGeometry width="50" height="50" relative="1" as="geometry">
            <mxPoint x="1430" y="900" as="sourcePoint" />
            <mxPoint x="450" y="900" as="targetPoint" />
          </mxGeometry>
        </mxCell>
        <mxCell id="4FPXhwdcyS67ErbTkfEf-58" value="" style="endArrow=none;dashed=1;html=1;dashPattern=1 3;strokeWidth=2;rounded=0;fontSize=16;entryX=0.5;entryY=1;entryDx=0;entryDy=0;startArrow=none;" edge="1" parent="1" source="4FPXhwdcyS67ErbTkfEf-60">
          <mxGeometry width="50" height="50" relative="1" as="geometry">
            <mxPoint x="1434" y="1160" as="sourcePoint" />
            <mxPoint x="1434.17" y="100" as="targetPoint" />
          </mxGeometry>
        </mxCell>
        <mxCell id="4FPXhwdcyS67ErbTkfEf-60" value="" style="rounded=0;whiteSpace=wrap;html=1;fontSize=13;" vertex="1" parent="1">
          <mxGeometry x="1430" y="800" width="10" height="90" as="geometry" />
        </mxCell>
        <mxCell id="4FPXhwdcyS67ErbTkfEf-61" value="" style="endArrow=none;dashed=1;html=1;dashPattern=1 3;strokeWidth=2;rounded=0;fontSize=16;entryX=0.5;entryY=1;entryDx=0;entryDy=0;" edge="1" parent="1" target="4FPXhwdcyS67ErbTkfEf-60">
          <mxGeometry width="50" height="50" relative="1" as="geometry">
            <mxPoint x="1435" y="960" as="sourcePoint" />
            <mxPoint x="1434.17" y="100" as="targetPoint" />
          </mxGeometry>
        </mxCell>
        <mxCell id="4FPXhwdcyS67ErbTkfEf-62" value="" style="rounded=0;whiteSpace=wrap;html=1;fontSize=13;" vertex="1" parent="1">
          <mxGeometry x="440" y="800" width="10" height="90" as="geometry" />
        </mxCell>
        <mxCell id="4FPXhwdcyS67ErbTkfEf-63" value="" style="endArrow=none;dashed=1;html=1;dashPattern=1 3;strokeWidth=2;rounded=0;fontSize=16;entryX=0.5;entryY=1;entryDx=0;entryDy=0;" edge="1" parent="1" target="4FPXhwdcyS67ErbTkfEf-62">
          <mxGeometry width="50" height="50" relative="1" as="geometry">
            <mxPoint x="445" y="970" as="sourcePoint" />
            <mxPoint x="447" y="434" as="targetPoint" />
          </mxGeometry>
        </mxCell>
        <mxCell id="4FPXhwdcyS67ErbTkfEf-64" value="/billsPayment/pmtAddRq/&amp;nbsp; &amp;nbsp;with request body and valid OTP" style="text;html=1;align=center;verticalAlign=middle;resizable=0;points=[];autosize=1;strokeColor=none;fillColor=none;fontSize=13;" vertex="1" parent="1">
          <mxGeometry x="720" y="770" width="360" height="20" as="geometry" />
        </mxCell>
        <mxCell id="4FPXhwdcyS67ErbTkfEf-65" value="Response" style="text;html=1;align=center;verticalAlign=middle;resizable=0;points=[];autosize=1;strokeColor=none;fillColor=none;fontSize=13;" vertex="1" parent="1">
          <mxGeometry x="855" y="870" width="70" height="20" as="geometry" />
        </mxCell>
      </root>
    </mxGraphModel>
  </diagram>
</mxfile>
